<svg id="visual" viewBox="0 0 960 540" width="960" height="540" xmlns="http://www.w3.org/2000/svg" xmlns:xlink="http://www.w3.org/1999/xlink" version="1.1"><rect x="0" y="0" width="960" height="540" fill="#001220"></rect><defs><linearGradient id="grad1_0" x1="43.8%" y1="100%" x2="100%" y2="0%"><stop offset="14.444444444444446%" stop-color="#001220" stop-opacity="1"></stop><stop offset="85.55555555555554%" stop-color="#001220" stop-opacity="1"></stop></linearGradient></defs><defs><linearGradient id="grad2_0" x1="0%" y1="100%" x2="56.3%" y2="0%"><stop offset="14.444444444444446%" stop-color="#001220" stop-opacity="1"></stop><stop offset="85.55555555555554%" stop-color="#001220" stop-opacity="1"></stop></linearGradient></defs><g transform="translate(960, 540)"><path d="M-432 0C-410.6 -48.4 -389.2 -96.7 -373.2 -154.6C-357.3 -212.5 -346.7 -279.9 -305.5 -305.5C-264.2 -331 -192.3 -314.8 -136.2 -328.9C-80.2 -343 -40.1 -387.5 0 -432L0 0Z" fill="#3d0097"></path></g><g transform="translate(0, 0)"><path d="M432 0C408.2 48.5 384.5 97.1 367.7 152.3C351 207.5 341.2 269.4 305.5 305.5C269.7 341.6 207.9 351.8 152.7 368.6C97.4 385.4 48.7 408.7 0 432L0 0Z" fill="#3d0097"></path></g></svg>